<?xml version="1.0"?>
<svg width="116" height="110" xmlns="http://www.w3.org/2000/svg" xmlns:svg="http://www.w3.org/2000/svg" data-name="Layer 1">
 <g class="layer">
  <title>Layer 1</title>
  <path d="m50.18,85.15a20.64,20.64 0 0 1 -15.42,-6.71c-4.57,-4.99 -6.8,-12.22 -6.13,-19.84a30.12,30.12 0 0 1 8.07,-18.17a24.1,24.1 0 0 1 17.46,-7.74a21.67,21.67 0 0 1 16.15,7.12a25.42,25.42 0 0 1 6.24,19.43l0,0c-0.68,7.75 -3.69,14.33 -8.7,19.03a25.68,25.68 0 0 1 -17.67,6.88zm3.98,-45.13c-9.27,0 -17.28,8.44 -18.22,19.22c-0.5,5.58 1.05,10.77 4.23,14.25a13.22,13.22 0 0 0 10.01,4.33c8.65,0 17.89,-5.95 19.07,-19.22l0,0a18.08,18.08 0 0 0 -4.35,-13.84a14.41,14.41 0 0 0 -10.74,-4.74zm18.74,18.9l0,0z" fill="#6c63ff" id="svg_1"/>
  <path d="m88.03,85.25a13.96,13.96 0 0 1 -2.44,-0.21a15.84,15.84 0 0 1 -10.47,-6.81c-2.61,-3.88 -3.71,-9.08 -3.18,-15.04l2.39,-27.14a3.67,3.67 0 0 1 7.3,0.64l-2.39,27.15c-0.69,7.78 2.17,13.01 7.63,13.98c1.88,0.33 5.25,-0.19 8.57,-2.73c3.4,-2.61 7.65,-7.98 8.6,-18.83c1.1,-12.43 -2.08,-23.11 -9.19,-30.87c-7.45,-8.14 -18.74,-12.45 -32.63,-12.45c-25.53,0 -48.13,20.77 -50.36,46.3a44.53,44.53 0 0 0 1.02,14.33a3.67,3.67 0 0 1 -7.13,1.72a51.85,51.85 0 0 1 -1.2,-16.69a58.96,58.96 0 0 1 57.67,-52.99c16.01,0 29.16,5.13 38.04,14.82c8.41,9.19 12.35,22.14 11.09,36.48c-1.19,13.5 -6.88,20.5 -11.45,24a20.02,20.02 0 0 1 -11.87,4.34z" fill="#6c63ff" id="svg_2" transform="matrix(1 0 0 1 0 0)"/>
  <path d="m52.37,105.27a49.5,49.5 0 0 1 -32.79,-12.08a3.67,3.67 0 1 1 4.84,-5.5a42.18,42.18 0 0 0 27.95,10.24c8.22,0 13.2,-0.55 20.94,-3.8a3.67,3.67 0 1 1 2.84,6.76c-8.85,3.72 -14.72,4.38 -23.78,4.38z" fill="#6c63ff" id="svg_3" transform="matrix(1 0 0 1 0 0)"/>
 </g>
</svg>