<svg xmlns="http://www.w3.org/2000/svg" data-name="Layer 1" width="534.20482" height="457.91748" viewBox="0 0 534.20482 457.91748" xmlns:xlink="http://www.w3.org/1999/xlink"><polygon points="223.146 445.593 235.406 445.593 241.238 398.305 223.144 398.306 223.146 445.593" fill="#ffb8b8"/><path d="M553.41674,663.131h38.53073a0,0,0,0,1,0,0v14.88687a0,0,0,0,1,0,0H568.3036A14.88686,14.88686,0,0,1,553.41674,663.131v0A0,0,0,0,1,553.41674,663.131Z" transform="translate(812.49723 1120.08154) rotate(179.99738)" fill="#2f2e41"/><polygon points="110.003 438.56 122.009 441.042 137.297 395.915 119.578 392.251 110.003 438.56" fill="#ffb8b8"/><path d="M439.13107,659.38528H477.6618a0,0,0,0,1,0,0v14.88687a0,0,0,0,1,0,0H454.01793a14.88686,14.88686,0,0,1-14.88686-14.88686v0A0,0,0,0,1,439.13107,659.38528Z" transform="translate(439.3822 1191.61924) rotate(-168.31809)" fill="#2f2e41"/><path d="M476.15515,507.45269a10.05576,10.05576,0,0,1,1.44213-15.35174l-9.5133-34.44527,17.66449,5.72709,6.32583,31.83178a10.11027,10.11027,0,0,1-15.91915,12.23814Z" transform="translate(-332.89759 -221.04126)" fill="#ffb8b8"/><path d="M552.46166,649.29614a4.49506,4.49506,0,0,1-4.44421-3.7832L525.1693,519.6145a1.50011,1.50011,0,0,0-2.85949-.36719L471.40832,637.01538a4.52779,4.52779,0,0,1-5.56385,2.481l-17.88025-6.00781a4.50015,4.50015,0,0,1-2.73291-5.9668L469.8402,567.2395l20.54407-90.9541.14514-.11035c.396-.30078,39.91895-29.80078,66.92676-6.2041C582.17126,491.56421,577.572,614.9563,576.399,639.47241a4.46508,4.46508,0,0,1-3.41895,4.14746l-19.42651,5.54346A4.56986,4.56986,0,0,1,552.46166,649.29614Z" transform="translate(-332.89759 -221.04126)" fill="#2f2e41"/><circle cx="180.8342" cy="123.99788" r="24.56103" fill="#ffb8b8"/><path d="M561.48757,496.45269A10.05576,10.05576,0,0,1,562.9297,481.101l-9.5133-34.44527,17.66449,5.72709,6.32584,31.83178a10.11028,10.11028,0,0,1-15.91916,12.23814Z" transform="translate(-332.89759 -221.04126)" fill="#ffb8b8"/><path d="M486.50988,486.63452a2.61858,2.61858,0,0,1-.9939-.19726c-10.37256-4.21582-2.10193-86.51416-1.74475-90.01563l.03955-.1499q.38488-.87817.77747-1.7207a29.64947,29.64947,0,0,1,30.07141-17.33155,30.50589,30.50589,0,0,1,27.13086,22.52783l19.21924,70.41651a4.497,4.497,0,0,1-5.31922,5.57666c-14.95337-3.33985-51.192-9.269-64.70153,7.76758C489.32909,485.60181,487.85338,486.63452,486.50988,486.63452Z" transform="translate(-332.89759 -221.04126)" fill="#6c63ff"/><path d="M560.98315,479.87378a4.51868,4.51868,0,0,1-1.44886-.24024,4.4632,4.4632,0,0,1-2.63122-2.35156l-16.72656-35.65869-16.27479-46.84912a11.10179,11.10179,0,0,1,2.844-11.67822h0a11.08162,11.08162,0,0,1,17.68115,3.38769l21.65637,46.79,16.89795,30.52246a4.50005,4.50005,0,0,1-1.861,6.17188l-18.067,9.39551A4.47913,4.47913,0,0,1,560.98315,479.87378Z" transform="translate(-332.89759 -221.04126)" fill="#6c63ff"/><path d="M487.89806,488.63989a4.5015,4.5015,0,0,1-.48486-.02588l-20.25012-2.14795a4.49977,4.49977,0,0,1-3.97718-5.13232l5.75306-38.96436,12.31042-48.043a11.10154,11.10154,0,0,1,8.82129-8.16407h0a11.08183,11.08183,0,0,1,12.86816,12.59034l-7.79211,50.96679-2.77307,34.77735a4.50186,4.50186,0,0,1-4.47559,4.14306Z" transform="translate(-332.89759 -221.04126)" fill="#6c63ff"/><path d="M517.61237,331.83181l20.41134-1.48649a20.86478,20.86478,0,0,0-12.72957-22.38589c-8.70006-3.30483-19.49845.36613-22.8408,5.63109a29.04891,29.04891,0,1,0,8.95906,55.62825C502.98863,357.39553,507.31332,338.60446,517.61237,331.83181Z" transform="translate(-332.89759 -221.04126)" fill="#2f2e41"/><path d="M480.4917,320.55739c-6.3336-5.78678-14.07549-10.4125-22.59351-11.43448s-17.82494,2.09912-22.72888,9.13849-4.04945,17.98142,2.84868,23.08211a17.82966,17.82966,0,0,1-7.91612,31.96255c-12.66522,1.92889-22.20157,14.979-21.25338,27.75508s11.417,23.91457,23.90346,26.78115,26.14847-2.06326,34.86327-11.45371,12.61736-22.72229,11.62448-35.495-6.60059-24.94086-14.66186-34.898c-2.189-2.70379-.54463-6.99127,2.268-9.03856s6.39434-2.6193,9.68655-3.74334,6.68994-3.24141,7.44915-6.63636S480.89163,319.21771,480.4917,320.55739Z" transform="translate(-332.89759 -221.04126)" fill="#2f2e41"/><path d="M850.10241,396.04126h-141a17.01917,17.01917,0,0,1-17-17v-141a17.01917,17.01917,0,0,1,17-17h141a17.01917,17.01917,0,0,1,17,17v141A17.01917,17.01917,0,0,1,850.10241,396.04126Zm-141-173a15.017,15.017,0,0,0-15,15v141a15.017,15.017,0,0,0,15,15h141a15.017,15.017,0,0,0,15-15v-141a15.017,15.017,0,0,0-15-15Z" transform="translate(-332.89759 -221.04126)" fill="#3f3d56"/><path d="M775.07891,335.18923a20.64288,20.64288,0,0,1-15.41852-6.7098c-4.5669-4.98666-6.80118-12.21883-6.12994-19.84226a30.12271,30.12271,0,0,1,8.07446-18.1676,24.10046,24.10046,0,0,1,17.45091-7.74132,21.666,21.666,0,0,1,16.15195,7.11938,25.41724,25.41724,0,0,1,6.24259,19.43323v.00014c-.68357,7.74738-3.693,14.32717-8.7028,19.0278A25.68122,25.68122,0,0,1,775.07891,335.18923Zm3.97691-45.12773c-9.26814,0-17.27146,8.4419-18.22035,19.21881-.49131,5.58,1.05149,10.77251,4.23293,14.24647a13.216,13.216,0,0,0,10.01051,4.3292c8.64634,0,17.89513-5.94285,19.06656-19.2195v.00014A18.07878,18.07878,0,0,0,789.79941,294.8,14.41262,14.41262,0,0,0,779.05582,290.0615Zm18.7421,18.89724h0Z" transform="translate(-332.89759 -221.04126)" fill="#6c63ff"/><path d="M809.93088,335.2855a13.96344,13.96344,0,0,1-2.43859-.20906,15.83584,15.83584,0,0,1-10.47627-6.81075c-2.60509-3.879-3.705-9.07664-3.1809-15.03119l2.39177-27.14743a3.66666,3.66666,0,0,1,7.305.6437l-2.39176,27.14715c-.68515,7.7836,2.168,13.00907,7.6321,13.97792,1.8756.33231,5.24516-.18331,8.56991-2.73083,3.3958-2.60178,7.644-7.979,8.59854-18.82039,1.09611-12.43794-2.08231-23.11556-9.19163-30.87892-7.45321-8.13891-18.73569-12.44083-32.62767-12.44083-25.53508,0-48.12752,20.76732-50.36243,46.29365a44.53249,44.53249,0,0,0,1.02339,14.33585,3.66661,3.66661,0,0,1-7.12943,1.71681,51.84961,51.84961,0,0,1-1.19926-16.69222,58.9612,58.9612,0,0,1,57.66773-52.98735c16.00383,0,29.15646,5.12521,38.03589,14.82158,8.41359,9.18765,12.35153,22.14135,11.08837,36.47485-1.18838,13.49838-6.87892,20.5007-11.44341,23.99807A20.018,20.018,0,0,1,809.93088,335.2855Z" transform="translate(-332.89759 -221.04126)" fill="#6c63ff"/><path d="M775.37225,362.26587A49.50462,49.50462,0,0,1,742.57932,350.194a3.66661,3.66661,0,1,1,4.84261-5.50683,42.17832,42.17832,0,0,0,27.95032,10.24546c8.22079,0,13.19526-.54908,20.94051-3.80338a3.66657,3.66657,0,1,1,2.84059,6.76062C790.297,361.611,784.42851,362.26587,775.37225,362.26587Z" transform="translate(-332.89759 -221.04126)" fill="#6c63ff"/><path d="M714.89759,678.95874h-381a1,1,0,0,1,0-2h381a1,1,0,0,1,0,2Z" transform="translate(-332.89759 -221.04126)" fill="#ccc"/></svg>