<?xml version="1.0" standalone="no"?><!DOCTYPE svg PUBLIC "-//W3C//DTD SVG 1.1//EN" "http://www.w3.org/Graphics/SVG/1.1/DTD/svg11.dtd"><svg t="1634047150720" class="icon" viewBox="0 0 1032 1024" version="1.1" xmlns="http://www.w3.org/2000/svg" p-id="24662" xmlns:xlink="http://www.w3.org/1999/xlink" width="258" height="256"><defs><style type="text/css"></style></defs><path d="M70.017 962.286V612.364c0-23.912 8.606-44.47 25.819-61.674 17.212-17.205 37.78-25.807 61.702-25.807h87.522c23.952 0 44.519 8.602 61.732 25.807 17.183 17.204 25.79 37.762 25.79 61.674v349.922H70.016z m375.904-936.48c-17.212 17.205-25.818 37.763-25.818 61.675v874.805h262.564V87.48c0-23.912-8.607-44.47-25.79-61.674C639.665 8.602 619.097 0 595.145 0h-87.521c-23.923 0-44.49 8.602-61.703 25.807 0 0 17.213-17.205 0 0z m350.086 262.442c-17.213 17.205-25.819 37.763-25.819 61.674v612.364h262.564V349.922c0-23.911-8.606-44.47-25.79-61.674-17.212-17.204-37.78-25.806-61.731-25.806h-87.522c-23.922 0-44.49 8.602-61.702 25.806z" p-id="24663"></path></svg>