<?xml version="1.0" standalone="no"?><!DOCTYPE svg PUBLIC "-//W3C//DTD SVG 1.1//EN" "http://www.w3.org/Graphics/SVG/1.1/DTD/svg11.dtd"><svg t="1634047289042" class="icon" viewBox="0 0 1024 1024" version="1.1" xmlns="http://www.w3.org/2000/svg" p-id="31813" xmlns:xlink="http://www.w3.org/1999/xlink" width="256" height="256"><defs><style type="text/css"></style></defs><path d="M950.857143 512q0 89.142857-34.857143 170.285714t-93.714286 140-140 93.714286-170.285714 34.857143q-98.285714 0-186.857143-41.428572T174.285714 792.571429q-4-5.714286-3.714285-12.857143t4.857142-11.714286l78.285715-78.857143q5.714286-5.142857 14.285714-5.142857 9.142857 1.142857 13.142857 6.857143 41.714286 54.285714 102.285714 84t128.571429 29.714286q59.428571 0 113.428571-23.142858T718.857143 718.857143t62.571428-93.428572T804.571429 512t-23.142858-113.428571T718.857143 305.142857 625.428571 242.571429 512 219.428571q-56 0-107.428571 20.285715T313.142857 297.714286l78.285714 78.857143q17.714286 17.142857 8 39.428571-9.714286 22.857143-33.714285 22.857143H109.714286q-14.857143 0-25.714286-10.857143T73.142857 402.285714V146.285714q0-24 22.857143-33.714285 22.285714-9.714286 39.428571 8l74.285715 73.714285q61.142857-57.714286 139.714285-89.428571T512 73.142857q89.142857 0 170.285714 34.857143t140 93.714286 93.714286 140 34.857143 170.285714zM585.142857 347.428571v256q0 8-5.142857 13.142858t-13.142857 5.142857H384q-8 0-13.142857-5.142857t-5.142857-13.142858v-36.571428q0-8 5.142857-13.142857t13.142857-5.142857h128V347.428571q0-8 5.142857-13.142857t13.142857-5.142857h36.571429q8 0 13.142857 5.142857t5.142857 13.142857z" p-id="31814"></path></svg>