<?xml version="1.0" standalone="no"?><!DOCTYPE svg PUBLIC "-//W3C//DTD SVG 1.1//EN" "http://www.w3.org/Graphics/SVG/1.1/DTD/svg11.dtd"><svg t="1634046939684" class="icon" viewBox="0 0 1024 1024" version="1.1" xmlns="http://www.w3.org/2000/svg" p-id="20066" xmlns:xlink="http://www.w3.org/1999/xlink" width="256" height="256"><defs><style type="text/css"></style></defs><path d="M832 0a192 192 0 0 1 192 192v640a192 192 0 0 1-192 192H192a192 192 0 0 1-192-192V192a192 192 0 0 1 192-192h128v128H192C156.672 128 128 156.672 128 192v640a64 64 0 0 0 64 64h640c35.392 0 64-28.608 64-64V192a64 64 0 0 0-64-64h-128V0h128zM320 640h384l128 192H192z m146.752-146.752l-128-128a64.106667 64.106667 0 0 1-13.888-69.76A64.042667 64.042667 0 0 1 384 256h64V64a64 64 0 0 1 64-64c35.392 0 64 28.608 64 64v192h64c25.856 0 49.28 15.616 59.136 39.488a64.213333 64.213333 0 0 1-13.888 69.76l-128 128A63.829333 63.829333 0 0 1 512 512a63.829333 63.829333 0 0 1-45.248-18.752z" fill="" p-id="20067"></path></svg>