<?xml version="1.0" standalone="no"?><!DOCTYPE svg PUBLIC "-//W3C//DTD SVG 1.1//EN" "http://www.w3.org/Graphics/SVG/1.1/DTD/svg11.dtd"><svg t="1634046949360" class="icon" viewBox="0 0 1024 1024" version="1.1" xmlns="http://www.w3.org/2000/svg" p-id="20868" xmlns:xlink="http://www.w3.org/1999/xlink" width="256" height="256"><defs><style type="text/css"></style></defs><path d="M191.992 832.008l127.994667-191.992001h383.984001l127.994667 191.992001z m191.992001-575.976001a64.039998 64.039998 0 0 1-59.133536-39.486355 65.341277 65.341277 0 0 1-4.543811-18.431232 63.933336 63.933336 0 0 1 18.431232-51.389859l127.994667-127.994667A63.826674 63.826674 0 0 1 511.978668-0.021332c16.383317 0 32.766635 6.271739 45.246114 18.751218l127.994667 127.994667a64.423982 64.423982 0 0 1 13.887422 69.821091A64.039998 64.039998 0 0 1 639.973334 256.031999h-63.997333v191.992c0 35.390525-28.606808 63.997333-63.997333 63.997333a63.997333 63.997333 0 0 1-63.997334-63.997333v-191.992h-63.997333zM831.965335 0.042665a191.992 191.992 0 0 1 191.992 191.992v639.973335a191.992 191.992 0 0 1-191.992 191.992H191.992a191.992 191.992 0 0 1-191.992-191.992V192.034665a191.992 191.992 0 0 1 191.992-191.992h112.443315l-56.253656 56.189659A191.458689 191.458689 0 0 0 202.871547 128.037332H191.992C156.665472 128.037332 127.994667 156.708137 127.994667 192.034665v639.973335a63.997333 63.997333 0 0 0 63.997333 63.997333h639.973335c35.390525 0 63.997333-28.606808 63.997333-63.997333V192.034665a63.997333 63.997333 0 0 0-63.997333-63.997333h-10.943544a192.461314 192.461314 0 0 0-45.310112-71.805008L719.52202 0.042665H831.965335z" p-id="20869"></path></svg>